<svg width="36" height="37" viewBox="0 0 36 37" fill="none" xmlns="http://www.w3.org/2000/svg">
<rect y="0.386353" width="36" height="36" rx="8" fill="#2266C1"/>
<path fill-rule="evenodd" clip-rule="evenodd" d="M12.6547 9.70788C12.9673 9.39532 13.3912 9.21973 13.8333 9.21973H22.1666C22.6086 9.21973 23.0325 9.39532 23.3451 9.70788C23.6577 10.0204 23.8333 10.4444 23.8333 10.8864V17.7763C23.9583 17.8486 24.0745 17.9373 24.1784 18.0412C24.491 18.3538 24.6666 18.7777 24.6666 19.2197V20.0531C24.6666 20.7161 24.4032 21.352 23.9344 21.8208C23.4655 22.2897 22.8296 22.5531 22.1666 22.5531L20.4999 22.5531V24.9697C20.4999 25.6328 20.2365 26.2687 19.7677 26.7375C19.2988 27.2063 18.663 27.4697 17.9999 27.4697C17.3369 27.4697 16.701 27.2063 16.2322 26.7375C15.7633 26.2687 15.4999 25.6328 15.4999 24.9697V22.5531H13.8333C13.1702 22.5531 12.5343 22.2897 12.0655 21.8208C11.5966 21.352 11.3333 20.7161 11.3333 20.0531V19.2197C11.3333 18.7777 11.5088 18.3538 11.8214 18.0412C11.9253 17.9373 12.0415 17.8486 12.1666 17.7763V10.8864C12.1666 10.4444 12.3422 10.0204 12.6547 9.70788ZM13.8333 17.5531H22.1666V10.8864H20.4999V13.3864C20.4999 13.8466 20.1268 14.2197 19.6666 14.2197C19.2063 14.2197 18.8333 13.8466 18.8333 13.3864V10.8864H17.1666V11.7197C17.1666 12.18 16.7935 12.5531 16.3333 12.5531C15.873 12.5531 15.4999 12.18 15.4999 11.7197V10.8864H13.8333L13.8333 17.5531ZM22.9999 19.2197H12.9999L12.9999 20.0531C12.9999 20.2741 13.0877 20.486 13.244 20.6423C13.4003 20.7986 13.6122 20.8864 13.8333 20.8864H15.4999C15.9419 20.8864 16.3659 21.062 16.6784 21.3745C16.991 21.6871 17.1666 22.111 17.1666 22.5531V24.9697C17.1666 25.1907 17.2544 25.4027 17.4107 25.559C17.5669 25.7153 17.7789 25.8031 17.9999 25.8031C18.2209 25.8031 18.4329 25.7153 18.5892 25.559C18.7455 25.4027 18.8333 25.1907 18.8333 24.9697V22.5531C18.8333 22.111 19.0088 21.6871 19.3214 21.3745C19.634 21.062 20.0579 20.8864 20.4999 20.8864H22.1666C22.3876 20.8864 22.5996 20.7986 22.7558 20.6423C22.9121 20.486 22.9999 20.2741 22.9999 20.0531V19.2197Z" fill="white"/>
</svg>
