<svg width="20" height="21" viewBox="0 0 20 21" fill="none" xmlns="http://www.w3.org/2000/svg">
<path fill-rule="evenodd" clip-rule="evenodd" d="M6.52426 2.88639C6.41429 2.88631 6.3054 2.90798 6.20385 2.95018C6.10231 2.99237 6.01012 3.05424 5.93259 3.13223L5.93084 3.13399L3.67843 5.38639H16.3214L14.069 3.13398L14.0672 3.13223C13.9897 3.05424 13.8975 2.99237 13.796 2.95018C13.6944 2.90798 13.5855 2.88631 13.4756 2.88639H6.52426ZM17.4999 7.05306H2.49992V8.71973C2.49992 8.94074 2.58772 9.1527 2.744 9.30898C2.89518 9.46016 3.09847 9.54726 3.31165 9.55278C3.6094 9.53128 3.89298 9.41623 4.12171 9.22376C4.13739 9.21057 4.15355 9.19796 4.17016 9.18596C4.41164 9.01146 4.70198 8.91753 4.99992 8.91753C5.29785 8.91753 5.5882 9.01146 5.82968 9.18596C5.84629 9.19796 5.86245 9.21057 5.87812 9.22376C6.10132 9.41157 6.37674 9.52566 6.66658 9.55105C6.95643 9.52566 7.23185 9.41157 7.45505 9.22376C7.47072 9.21057 7.48688 9.19796 7.50349 9.18596C7.74497 9.01146 8.03532 8.91753 8.33325 8.91753C8.63119 8.91753 8.92153 9.01146 9.16301 9.18596C9.17962 9.19796 9.19578 9.21057 9.21146 9.22376C9.43465 9.41157 9.71007 9.52566 9.99992 9.55105C10.2898 9.52566 10.5652 9.41157 10.7884 9.22376C10.8041 9.21057 10.8202 9.19796 10.8368 9.18596C11.0783 9.01146 11.3687 8.91753 11.6666 8.91753C11.9645 8.91753 12.2549 9.01146 12.4963 9.18596C12.513 9.19796 12.5291 9.21057 12.5448 9.22376C12.768 9.41157 13.0434 9.52566 13.3333 9.55105C13.6231 9.52566 13.8985 9.41157 14.1217 9.22376C14.1374 9.21057 14.1535 9.19796 14.1702 9.18596C14.4116 9.01146 14.702 8.91753 14.9999 8.91753C15.2979 8.91753 15.5882 9.01146 15.8297 9.18596C15.8463 9.19796 15.8624 9.21057 15.8781 9.22376C16.1069 9.41623 16.3904 9.53128 16.6882 9.55278C16.9014 9.54726 17.1047 9.46016 17.2558 9.30898C17.4121 9.1527 17.4999 8.94074 17.4999 8.71973V7.05306ZM15.8333 11.0709C15.5367 10.974 15.2556 10.8325 14.9999 10.6501C14.5258 10.9883 13.9639 11.1863 13.379 11.2185C13.3485 11.2201 13.318 11.2201 13.2875 11.2185C12.7026 11.1863 12.1407 10.9883 11.6666 10.6501C11.1924 10.9883 10.6306 11.1863 10.0457 11.2185C10.0152 11.2201 9.98463 11.2201 9.95412 11.2185C9.36924 11.1863 8.80741 10.9883 8.33325 10.6501C7.85909 10.9883 7.29726 11.1863 6.71238 11.2185C6.68187 11.2201 6.6513 11.2201 6.62079 11.2185C6.03591 11.1863 5.47408 10.9883 4.99992 10.6501C4.74425 10.8325 4.4631 10.974 4.16658 11.0709V17.0531C4.16658 17.2741 4.25438 17.486 4.41066 17.6423C4.56694 17.7986 4.7789 17.8864 4.99992 17.8864H6.66658V15.3864C6.66658 14.7234 6.92998 14.0875 7.39882 13.6186C7.86766 13.1498 8.50354 12.8864 9.16658 12.8864H10.8333C11.4963 12.8864 12.1322 13.1498 12.601 13.6186C13.0699 14.0875 13.3333 14.7234 13.3333 15.3864V17.8864H14.9999C15.2209 17.8864 15.4329 17.7986 15.5892 17.6423C15.7455 17.486 15.8333 17.2741 15.8333 17.0531V11.0709ZM11.6666 17.8864V15.3864C11.6666 15.1654 11.5788 14.9534 11.4225 14.7971C11.2662 14.6409 11.0543 14.5531 10.8333 14.5531H9.16658C8.94557 14.5531 8.73361 14.6409 8.57733 14.7971C8.42105 14.9534 8.33325 15.1654 8.33325 15.3864V17.8864H11.6666ZM7.49992 19.5531H14.9999C15.663 19.5531 16.2988 19.2897 16.7677 18.8208C17.2365 18.352 17.4999 17.7161 17.4999 17.0531V11.0768C17.8482 10.9536 18.1682 10.7537 18.4344 10.4875C18.9032 10.0187 19.1666 9.38277 19.1666 8.71973V6.21973C19.1666 5.99871 19.0788 5.78675 18.9225 5.63047L15.2493 1.95723C15.2489 1.95686 15.2485 1.95648 15.2481 1.95611C15.0158 1.72268 14.7396 1.53745 14.4355 1.41107C14.131 1.28458 13.8046 1.21955 13.4749 1.21973C13.4748 1.21973 13.475 1.21973 13.4749 1.21973H6.52524M7.49992 19.5531H4.99992C4.33688 19.5531 3.70099 19.2897 3.23215 18.8208C2.76331 18.352 2.49992 17.7161 2.49992 17.0531V11.0768C2.15167 10.9536 1.83166 10.7537 1.56548 10.4875C1.09664 10.0187 0.833252 9.38277 0.833252 8.71973V6.21973C0.833252 5.99871 0.921049 5.78675 1.07733 5.63047L4.75058 1.95723C4.75091 1.9569 4.75123 1.95657 4.75156 1.95624C4.98393 1.72274 5.26016 1.53747 5.56437 1.41107C5.86881 1.28458 6.19557 1.21955 6.52524 1.21973" fill="white"/>
</svg>
